<?xml version="1.0" encoding="UTF-8"?>
<svg width="280" height="112" viewBox="0 0 280 112" fill="none" xmlns="http://www.w3.org/2000/svg">
  <!-- IBM Official 8-Bar Logo -->
  <g fill="#0f62fe">
    <!-- Letter I -->
    <rect x="0" y="0" width="56" height="14" />
    <rect x="8" y="14" width="40" height="14" />
    <rect x="16" y="28" width="24" height="14" />
    <rect x="16" y="42" width="24" height="14" />
    <rect x="16" y="56" width="24" height="14" />
    <rect x="16" y="70" width="24" height="14" />
    <rect x="8" y="84" width="40" height="14" />
    <rect x="0" y="98" width="56" height="14" />
    
    <!-- Letter B -->
    <rect x="72" y="0" width="56" height="14" />
    <rect x="72" y="14" width="8" height="14" />
    <rect x="120" y="14" width="8" height="14" />
    <rect x="72" y="28" width="8" height="14" />
    <rect x="120" y="28" width="8" height="14" />
    <rect x="72" y="42" width="48" height="14" />
    <rect x="72" y="56" width="48" height="14" />
    <rect x="72" y="70" width="8" height="14" />
    <rect x="120" y="70" width="8" height="14" />
    <rect x="72" y="84" width="8" height="14" />
    <rect x="120" y="84" width="8" height="14" />
    <rect x="72" y="98" width="56" height="14" />
    
    <!-- Letter M -->
    <rect x="144" y="0" width="136" height="14" />
    <rect x="144" y="14" width="8" height="14" />
    <rect x="192" y="14" width="8" height="14" />
    <rect x="272" y="14" width="8" height="14" />
    <rect x="144" y="28" width="8" height="14" />
    <rect x="176" y="28" width="8" height="14" />
    <rect x="208" y="28" width="8" height="14" />
    <rect x="272" y="28" width="8" height="14" />
    <rect x="144" y="42" width="8" height="14" />
    <rect x="176" y="42" width="8" height="14" />
    <rect x="208" y="42" width="8" height="14" />
    <rect x="272" y="42" width="8" height="14" />
    <rect x="144" y="56" width="8" height="14" />
    <rect x="176" y="56" width="8" height="14" />
    <rect x="208" y="56" width="8" height="14" />
    <rect x="272" y="56" width="8" height="14" />
    <rect x="144" y="70" width="8" height="14" />
    <rect x="272" y="70" width="8" height="14" />
    <rect x="144" y="84" width="8" height="14" />
    <rect x="272" y="84" width="8" height="14" />
    <rect x="144" y="98" width="8" height="14" />
    <rect x="272" y="98" width="8" height="14" />
  </g>
</svg> 